<svg width="255" height="72" viewBox="0 0 255 72" fill="none" xmlns="http://www.w3.org/2000/svg">
<rect width="254.667" height="72" rx="12" fill="white"/>
<g clip-path="url(#clip0_1603_134)">
<path d="M21.5 45C20.9091 45 20.3239 44.8836 19.7779 44.6575C19.232 44.4313 18.7359 44.0998 18.318 43.682C17.9002 43.2641 17.5687 42.768 17.3425 42.2221C17.1164 41.6761 17 41.0909 17 40.5C17 39.9091 17.1164 39.3239 17.3425 38.7779C17.5687 38.232 17.9002 37.7359 18.318 37.318C18.7359 36.9002 19.232 36.5687 19.7779 36.3425C20.3239 36.1164 20.9091 36 21.5 36C22.6935 36 23.8381 36.4741 24.682 37.318C25.5259 38.1619 26 39.3065 26 40.5C26 41.6935 25.5259 42.8381 24.682 43.682C23.8381 44.5259 22.6935 45 21.5 45ZM21.5 43C22.163 43 22.7989 42.7366 23.2678 42.2678C23.7366 41.7989 24 41.163 24 40.5C24 39.837 23.7366 39.2011 23.2678 38.7322C22.7989 38.2634 22.163 38 21.5 38C20.837 38 20.2011 38.2634 19.7322 38.7322C19.2634 39.2011 19 39.837 19 40.5C19 41.163 19.2634 41.7989 19.7322 42.2678C20.2011 42.7366 20.837 43 21.5 43ZM34.5 45C33.9091 45 33.3239 44.8836 32.7779 44.6575C32.232 44.4313 31.7359 44.0998 31.318 43.682C30.9002 43.2641 30.5687 42.768 30.3425 42.2221C30.1164 41.6761 30 41.0909 30 40.5C30 39.9091 30.1164 39.3239 30.3425 38.7779C30.5687 38.232 30.9002 37.7359 31.318 37.318C31.7359 36.9002 32.232 36.5687 32.7779 36.3425C33.3239 36.1164 33.9091 36 34.5 36C35.6935 36 36.8381 36.4741 37.682 37.318C38.5259 38.1619 39 39.3065 39 40.5C39 41.6935 38.5259 42.8381 37.682 43.682C36.8381 44.5259 35.6935 45 34.5 45ZM34.5 43C35.163 43 35.7989 42.7366 36.2678 42.2678C36.7366 41.7989 37 41.163 37 40.5C37 39.837 36.7366 39.2011 36.2678 38.7322C35.7989 38.2634 35.163 38 34.5 38C33.837 38 33.2011 38.2634 32.7322 38.7322C32.2634 39.2011 32 39.837 32 40.5C32 41.163 32.2634 41.7989 32.7322 42.2678C33.2011 42.7366 33.837 43 34.5 43ZM27.023 34.305L29 36V42H27V37L24.281 34.734C24.039 34.5677 23.8367 34.3502 23.6882 34.0969C23.5398 33.8436 23.4489 33.5608 23.4221 33.2684C23.3953 32.976 23.4331 32.6814 23.533 32.4053C23.6329 32.1292 23.7923 31.8785 24 31.671L26.828 28.843C27.0137 28.6572 27.2342 28.5098 27.4769 28.4092C27.7197 28.3087 27.9798 28.2569 28.2425 28.2569C28.5052 28.2569 28.7653 28.3087 29.0081 28.4092C29.2508 28.5098 29.4713 28.6572 29.657 28.843L31.071 30.257C32.13 31.3198 33.5038 32.0125 34.988 32.232L34.978 34.247C32.9642 34.0152 31.0884 33.1074 29.657 31.672L27.023 34.305ZM32 29C31.4696 29 30.9609 28.7893 30.5858 28.4142C30.2107 28.0391 30 27.5304 30 27C30 26.4696 30.2107 25.9609 30.5858 25.5858C30.9609 25.2107 31.4696 25 32 25C32.5304 25 33.0391 25.2107 33.4142 25.5858C33.7893 25.9609 34 26.4696 34 27C34 27.5304 33.7893 28.0391 33.4142 28.4142C33.0391 28.7893 32.5304 29 32 29Z" fill="#FFA800"/>
</g>
<path d="M62.846 26.83H58.59L57.806 29H56.462L59.99 19.298H61.46L64.974 29H63.63L62.846 26.83ZM62.482 25.794L60.718 20.866L58.954 25.794H62.482ZM66.0356 25.15C66.0356 24.3567 66.1943 23.666 66.5116 23.078C66.8289 22.4807 67.2676 22.0187 67.8276 21.692C68.3969 21.3653 69.0456 21.202 69.7736 21.202C70.7163 21.202 71.4909 21.4307 72.0976 21.888C72.7136 22.3453 73.1196 22.98 73.3156 23.792H71.9436C71.8129 23.3253 71.5563 22.9567 71.1736 22.686C70.8003 22.4153 70.3336 22.28 69.7736 22.28C69.0456 22.28 68.4576 22.532 68.0096 23.036C67.5616 23.5307 67.3376 24.2353 67.3376 25.15C67.3376 26.074 67.5616 26.788 68.0096 27.292C68.4576 27.796 69.0456 28.048 69.7736 28.048C70.3336 28.048 70.8003 27.9173 71.1736 27.656C71.5469 27.3947 71.8036 27.0213 71.9436 26.536H73.3156C73.1103 27.32 72.6996 27.95 72.0836 28.426C71.4676 28.8927 70.6976 29.126 69.7736 29.126C69.0456 29.126 68.3969 28.9627 67.8276 28.636C67.2676 28.3093 66.8289 27.8473 66.5116 27.25C66.1943 26.6527 66.0356 25.9527 66.0356 25.15ZM76.5695 22.378V26.9C76.5695 27.2733 76.6488 27.5393 76.8075 27.698C76.9662 27.8473 77.2415 27.922 77.6335 27.922H78.5715V29H77.4235C76.7142 29 76.1822 28.8367 75.8275 28.51C75.4728 28.1833 75.2955 27.6467 75.2955 26.9V22.378H74.3015V21.328H75.2955V19.396H76.5695V21.328H78.5715V22.378H76.5695ZM80.7731 20.082C80.5304 20.082 80.3251 19.998 80.1571 19.83C79.9891 19.662 79.9051 19.4567 79.9051 19.214C79.9051 18.9713 79.9891 18.766 80.1571 18.598C80.3251 18.43 80.5304 18.346 80.7731 18.346C81.0064 18.346 81.2024 18.43 81.3611 18.598C81.5291 18.766 81.6131 18.9713 81.6131 19.214C81.6131 19.4567 81.5291 19.662 81.3611 19.83C81.2024 19.998 81.0064 20.082 80.7731 20.082ZM81.3891 21.328V29H80.1151V21.328H81.3891ZM86.4164 27.824L88.7964 21.328H90.1544L87.1444 29H85.6604L82.6504 21.328H84.0224L86.4164 27.824ZM92.0661 20.082C91.8234 20.082 91.6181 19.998 91.4501 19.83C91.2821 19.662 91.1981 19.4567 91.1981 19.214C91.1981 18.9713 91.2821 18.766 91.4501 18.598C91.6181 18.43 91.8234 18.346 92.0661 18.346C92.2994 18.346 92.4954 18.43 92.6541 18.598C92.8221 18.766 92.9061 18.9713 92.9061 19.214C92.9061 19.4567 92.8221 19.662 92.6541 19.83C92.4954 19.998 92.2994 20.082 92.0661 20.082ZM92.6821 21.328V29H91.4081V21.328H92.6821ZM96.4074 22.378V26.9C96.4074 27.2733 96.4867 27.5393 96.6454 27.698C96.8041 27.8473 97.0794 27.922 97.4714 27.922H98.4094V29H97.2614C96.5521 29 96.0201 28.8367 95.6654 28.51C95.3107 28.1833 95.1334 27.6467 95.1334 26.9V22.378H94.1394V21.328H95.1334V19.396H96.4074V21.328H98.4094V22.378H96.4074ZM106.561 21.328L101.941 32.612H100.625L102.137 28.916L99.043 21.328H100.457L102.865 27.544L105.245 21.328H106.561Z" fill="#979797"/>
<path d="M63.904 49.728H59.248L58.448 52H56.544L60.528 40.864H62.64L66.624 52H64.704L63.904 49.728ZM63.392 48.24L61.584 43.072L59.76 48.24H63.392ZM70.1803 40.16V52H68.3563V40.16H70.1803ZM74.399 40.16V52H72.575V40.16H74.399ZM87.654 49.728H82.998L82.198 52H80.294L84.278 40.864H86.39L90.374 52H88.454L87.654 49.728ZM87.142 48.24L85.334 43.072L83.51 48.24H87.142ZM91.4983 47.584C91.4983 46.6773 91.6796 45.8827 92.0423 45.2C92.4156 44.5067 92.9276 43.9733 93.5783 43.6C94.2289 43.2267 94.9756 43.04 95.8183 43.04C96.8849 43.04 97.7649 43.296 98.4583 43.808C99.1623 44.3093 99.6369 45.0293 99.8823 45.968H97.9143C97.7543 45.5307 97.4983 45.1893 97.1463 44.944C96.7943 44.6987 96.3516 44.576 95.8183 44.576C95.0716 44.576 94.4743 44.8427 94.0263 45.376C93.5889 45.8987 93.3703 46.6347 93.3703 47.584C93.3703 48.5333 93.5889 49.2747 94.0263 49.808C94.4743 50.3413 95.0716 50.608 95.8183 50.608C96.8743 50.608 97.5729 50.144 97.9143 49.216H99.8823C99.6263 50.112 99.1463 50.8267 98.4423 51.36C97.7383 51.8827 96.8636 52.144 95.8183 52.144C94.9756 52.144 94.2289 51.9573 93.5783 51.584C92.9276 51.2 92.4156 50.6667 92.0423 49.984C91.6796 49.2907 91.4983 48.4907 91.4983 47.584ZM103.828 44.672V49.552C103.828 49.8827 103.903 50.1227 104.052 50.272C104.212 50.4107 104.479 50.48 104.852 50.48H105.972V52H104.532C103.711 52 103.081 51.808 102.644 51.424C102.207 51.04 101.988 50.416 101.988 49.552V44.672H100.948V43.184H101.988V40.992H103.828V43.184H105.972V44.672H103.828ZM108.581 42.016C108.25 42.016 107.973 41.904 107.749 41.68C107.525 41.456 107.413 41.1787 107.413 40.848C107.413 40.5173 107.525 40.24 107.749 40.016C107.973 39.792 108.25 39.68 108.581 39.68C108.901 39.68 109.173 39.792 109.397 40.016C109.621 40.24 109.733 40.5173 109.733 40.848C109.733 41.1787 109.621 41.456 109.397 41.68C109.173 41.904 108.901 42.016 108.581 42.016ZM109.477 43.184V52H107.653V43.184H109.477ZM115.28 50.368L117.776 43.184H119.712L116.352 52H114.176L110.832 43.184H112.784L115.28 50.368ZM122.019 42.016C121.688 42.016 121.411 41.904 121.187 41.68C120.963 41.456 120.851 41.1787 120.851 40.848C120.851 40.5173 120.963 40.24 121.187 40.016C121.411 39.792 121.688 39.68 122.019 39.68C122.339 39.68 122.611 39.792 122.835 40.016C123.059 40.24 123.171 40.5173 123.171 40.848C123.171 41.1787 123.059 41.456 122.835 41.68C122.611 41.904 122.339 42.016 122.019 42.016ZM122.915 43.184V52H121.091V43.184H122.915ZM127.437 44.672V49.552C127.437 49.8827 127.512 50.1227 127.661 50.272C127.821 50.4107 128.088 50.48 128.461 50.48H129.581V52H128.141C127.32 52 126.691 51.808 126.253 51.424C125.816 51.04 125.597 50.416 125.597 49.552V44.672H124.557V43.184H125.597V40.992H127.437V43.184H129.581V44.672H127.437ZM132.191 42.016C131.86 42.016 131.583 41.904 131.359 41.68C131.135 41.456 131.023 41.1787 131.023 40.848C131.023 40.5173 131.135 40.24 131.359 40.016C131.583 39.792 131.86 39.68 132.191 39.68C132.511 39.68 132.783 39.792 133.007 40.016C133.231 40.24 133.343 40.5173 133.343 40.848C133.343 41.1787 133.231 41.456 133.007 41.68C132.783 41.904 132.511 42.016 132.191 42.016ZM133.087 43.184V52H131.263V43.184H133.087ZM143.561 47.376C143.561 47.7067 143.54 48.0053 143.497 48.272H136.761C136.815 48.976 137.076 49.5413 137.545 49.968C138.015 50.3947 138.591 50.608 139.273 50.608C140.255 50.608 140.948 50.1973 141.353 49.376H143.321C143.055 50.1867 142.569 50.8533 141.865 51.376C141.172 51.888 140.308 52.144 139.273 52.144C138.431 52.144 137.673 51.9573 137.001 51.584C136.34 51.2 135.817 50.6667 135.433 49.984C135.06 49.2907 134.873 48.4907 134.873 47.584C134.873 46.6773 135.055 45.8827 135.417 45.2C135.791 44.5067 136.308 43.9733 136.969 43.6C137.641 43.2267 138.409 43.04 139.273 43.04C140.105 43.04 140.847 43.2213 141.497 43.584C142.148 43.9467 142.655 44.4587 143.017 45.12C143.38 45.7707 143.561 46.5227 143.561 47.376ZM141.657 46.8C141.647 46.128 141.407 45.5893 140.937 45.184C140.468 44.7787 139.887 44.576 139.193 44.576C138.564 44.576 138.025 44.7787 137.577 45.184C137.129 45.5787 136.863 46.1173 136.777 46.8H141.657ZM148.556 52.144C147.863 52.144 147.239 52.0213 146.684 51.776C146.14 51.52 145.708 51.1787 145.388 50.752C145.068 50.3147 144.898 49.8293 144.876 49.296H146.764C146.796 49.6693 146.972 49.984 147.292 50.24C147.623 50.4853 148.034 50.608 148.524 50.608C149.036 50.608 149.431 50.512 149.708 50.32C149.996 50.1173 150.14 49.8613 150.14 49.552C150.14 49.2213 149.98 48.976 149.66 48.816C149.351 48.656 148.855 48.48 148.172 48.288C147.511 48.1067 146.972 47.9307 146.556 47.76C146.14 47.5893 145.778 47.328 145.468 46.976C145.17 46.624 145.02 46.16 145.02 45.584C145.02 45.1147 145.159 44.688 145.436 44.304C145.714 43.9093 146.108 43.6 146.62 43.376C147.143 43.152 147.74 43.04 148.412 43.04C149.415 43.04 150.22 43.296 150.828 43.808C151.447 44.3093 151.778 44.9973 151.82 45.872H149.996C149.964 45.4773 149.804 45.1627 149.516 44.928C149.228 44.6933 148.839 44.576 148.348 44.576C147.868 44.576 147.5 44.6667 147.244 44.848C146.988 45.0293 146.86 45.2693 146.86 45.568C146.86 45.8027 146.946 46 147.116 46.16C147.287 46.32 147.495 46.448 147.74 46.544C147.986 46.6293 148.348 46.7413 148.828 46.88C149.468 47.0507 149.991 47.2267 150.396 47.408C150.812 47.5787 151.17 47.8347 151.468 48.176C151.767 48.5173 151.922 48.9707 151.932 49.536C151.932 50.0373 151.794 50.4853 151.516 50.88C151.239 51.2747 150.844 51.584 150.332 51.808C149.831 52.032 149.239 52.144 148.556 52.144Z" fill="#161414"/>
<defs>
<clipPath id="clip0_1603_134">
<rect width="24" height="24" fill="white" transform="translate(16 24)"/>
</clipPath>
</defs>
</svg>
